<svg xmlns="http://www.w3.org/2000/svg" width="810" viewBox="0 0 810 810" height="810" version="1.0"><defs><clipPath id="a"><path d="M 243 276 L 567 276 L 567 533.988281 L 243 533.988281 Z M 243 276"/></clipPath></defs><path fill="#FFF" d="M-81 -81H891V891H-81z"/><path fill="#FFF" d="M-81 -81H891V891H-81z"/><path fill="#E1D83D" d="M 536.625 444.980469 L 511.3125 444.980469 C 508.527344 444.980469 506.25 447.257812 506.25 450.042969 L 506.25 475.355469 C 506.25 478.140625 508.527344 480.417969 511.3125 480.417969 L 536.625 480.417969 C 539.410156 480.417969 541.6875 478.140625 541.6875 475.355469 L 541.6875 450.042969 C 541.6875 447.257812 539.410156 444.980469 536.625 444.980469 Z M 531.5625 470.292969 L 516.375 470.292969 L 516.375 455.105469 L 531.5625 455.105469 Z M 531.5625 470.292969"/><path fill="#E1D83D" d="M 301.21875 444.980469 L 275.90625 444.980469 C 273.121094 444.980469 270.84375 447.257812 270.84375 450.042969 L 270.84375 475.355469 C 270.84375 478.140625 273.121094 480.417969 275.90625 480.417969 L 301.21875 480.417969 C 304.003906 480.417969 306.28125 478.140625 306.28125 475.355469 L 306.28125 450.042969 C 306.28125 447.257812 304.003906 444.980469 301.21875 444.980469 Z M 296.15625 470.292969 L 280.96875 470.292969 L 280.96875 455.105469 L 296.15625 455.105469 Z M 296.15625 470.292969"/><path fill="#E1D83D" d="M 510.804688 366.007812 C 511.566406 364.742188 511.566406 363.226562 511.058594 361.960938 C 502.960938 338.925781 481.949219 308.804688 481.445312 307.792969 C 474.609375 297.164062 430.566406 295.644531 405 295.644531 C 379.433594 295.644531 335.390625 297.164062 328.808594 307.539062 C 328.050781 308.804688 307.039062 338.671875 298.941406 361.960938 C 298.433594 363.226562 298.6875 364.742188 299.195312 365.757812 C 299.699219 367.023438 300.710938 367.78125 301.976562 368.289062 C 304.507812 369.046875 341.972656 381.703125 401.203125 381.703125 C 431.578125 381.703125 467.523438 378.410156 507.515625 368.289062 C 508.78125 368.035156 510.046875 367.273438 510.804688 366.007812 Z M 310.332031 360.1875 C 318.9375 339.179688 336.910156 313.613281 337.164062 313.363281 C 340.199219 310.324219 363.742188 305.769531 405 305.769531 C 446.257812 305.769531 469.800781 310.324219 472.835938 313.363281 C 473.089844 313.613281 490.808594 338.925781 499.414062 359.933594 C 403.734375 382.714844 329.820312 365.757812 310.332031 360.1875 Z M 310.332031 360.1875"/><g clip-path="url(#a)"><path fill="#E1D83D" d="M 556.367188 326.019531 L 537.132812 326.019531 C 531.308594 326.019531 526.5 330.828125 526.5 336.648438 L 526.5 337.40625 C 526.5 340.699219 527.511719 343.988281 529.03125 346.773438 L 527.765625 348.039062 C 516.882812 321.714844 496.125 291.847656 495.367188 290.582031 C 487.265625 277.925781 429.554688 276.40625 405.253906 276.40625 C 380.953125 276.40625 322.734375 277.925781 314.886719 290.582031 C 313.875 291.847656 294.636719 319.691406 283.5 345.253906 L 282.488281 343.734375 C 283.246094 341.710938 283.5 339.6875 283.5 337.40625 L 283.5 336.648438 C 283.5 330.828125 278.691406 326.019531 272.867188 326.019531 L 253.632812 326.019531 C 247.808594 326.019531 243 330.828125 243 336.648438 L 243 337.40625 C 243 347.785156 251.605469 356.390625 261.984375 356.390625 L 264.515625 356.390625 C 269.070312 356.390625 273.121094 354.871094 276.414062 352.339844 L 278.945312 355.378906 C 271.097656 361.960938 246.289062 387.019531 248.0625 429.792969 C 249.582031 468.015625 255.65625 488.515625 258.1875 495.855469 L 258.1875 518.636719 C 258.1875 526.988281 265.023438 533.570312 273.121094 533.570312 L 288.816406 533.570312 C 297.167969 533.570312 303.75 526.738281 303.75 518.636719 L 303.75 501.929688 L 306.535156 501.929688 C 308.054688 501.929688 309.320312 501.171875 310.332031 500.160156 L 315.140625 494.589844 L 494.859375 494.589844 L 499.667969 500.160156 C 500.679688 501.171875 501.945312 501.929688 503.464844 501.929688 L 506.25 501.929688 L 506.25 518.636719 C 506.25 526.988281 513.085938 533.570312 521.183594 533.570312 L 536.878906 533.570312 C 545.230469 533.570312 551.8125 526.738281 551.8125 518.636719 L 551.8125 495.855469 C 554.34375 488.515625 560.417969 468.015625 561.9375 429.792969 C 563.457031 390.054688 542.445312 365.757812 533.082031 356.898438 L 536.117188 353.859375 C 538.902344 355.378906 542.195312 356.390625 545.484375 356.390625 L 548.015625 356.390625 C 558.394531 356.390625 567 347.785156 567 337.40625 L 567 336.648438 C 567 330.828125 562.191406 326.019531 556.367188 326.019531 Z M 273.375 337.40625 C 273.375 342.21875 269.324219 346.265625 264.515625 346.265625 L 261.984375 346.265625 C 257.175781 346.265625 253.125 342.21875 253.125 337.40625 L 253.125 336.648438 C 253.125 336.394531 253.378906 336.140625 253.632812 336.140625 L 272.867188 336.140625 C 273.121094 336.140625 273.375 336.394531 273.375 336.648438 Z M 287.296875 361.453125 C 288.054688 360.945312 288.5625 359.933594 289.070312 359.175781 C 289.070312 359.175781 289.070312 358.921875 289.070312 358.921875 C 289.574219 357.65625 290.082031 356.390625 290.585938 354.871094 C 300.710938 329.054688 322.988281 296.910156 323.242188 296.402344 C 326.277344 292.605469 354.375 287.039062 404.746094 287.039062 C 455.117188 287.039062 483.214844 292.605469 486.507812 296.65625 C 486.757812 296.910156 511.566406 332.851562 520.679688 359.429688 C 520.929688 360.441406 521.691406 361.199219 522.449219 361.707031 C 522.957031 361.960938 526.5 364.996094 531.054688 370.3125 C 403.734375 420.933594 301.21875 380.941406 278.183594 370.3125 C 283.246094 364.492188 286.789062 361.707031 287.296875 361.453125 Z M 329.316406 396.890625 C 349.820312 401.445312 374.878906 404.988281 403.226562 404.988281 C 425.25 404.988281 449.550781 402.964844 475.367188 397.394531 C 474.355469 400.433594 473.851562 403.722656 474.355469 406.761719 C 474.863281 410.8125 476.382812 414.101562 478.152344 416.632812 C 474.863281 417.644531 471.824219 418.402344 468.789062 419.417969 C 437.398438 428.277344 408.039062 436.882812 357.664062 423.464844 C 346.527344 420.429688 335.898438 417.898438 326.023438 415.871094 C 328.050781 413.339844 329.820312 410.050781 330.328125 406.253906 C 330.582031 403.21875 330.328125 400.179688 329.316406 396.890625 Z M 272.363281 378.160156 C 278.691406 381.195312 293.878906 387.777344 315.898438 393.597656 C 315.898438 393.597656 315.898438 393.851562 316.152344 393.851562 C 319.445312 397.648438 320.710938 401.445312 320.203125 404.734375 C 319.445312 409.292969 315.140625 412.835938 313.621094 413.847656 C 311.089844 413.339844 308.304688 412.835938 305.773438 412.582031 C 281.222656 408.785156 267.046875 409.546875 259.199219 411.0625 C 261.730469 397.140625 267.046875 386.257812 272.363281 378.160156 Z M 293.625 518.636719 C 293.625 521.421875 291.347656 523.445312 288.816406 523.445312 L 273.121094 523.445312 C 270.335938 523.445312 268.3125 521.167969 268.3125 518.636719 L 268.3125 501.929688 L 293.625 501.929688 Z M 541.6875 518.636719 C 541.6875 521.421875 539.410156 523.445312 536.878906 523.445312 L 521.183594 523.445312 C 518.398438 523.445312 516.375 521.167969 516.375 518.636719 L 516.375 501.929688 L 541.6875 501.929688 Z M 551.8125 429.539062 C 550.292969 465.230469 544.976562 484.71875 542.699219 491.808594 L 505.996094 491.808594 L 501.1875 486.238281 C 500.175781 485.226562 498.910156 484.464844 497.390625 484.464844 L 312.863281 484.464844 C 311.34375 484.464844 310.078125 484.972656 309.066406 486.238281 L 304.257812 491.808594 L 267.554688 491.808594 C 265.023438 484.71875 259.707031 465.230469 258.1875 429.539062 C 258.1875 426.757812 258.1875 424.226562 258.1875 421.695312 C 261.984375 420.429688 274.386719 417.644531 304.257812 422.453125 C 319.191406 424.730469 336.148438 428.527344 354.882812 433.589844 C 374.625 438.90625 391.585938 440.929688 406.519531 440.929688 C 431.832031 440.929688 451.828125 435.109375 471.570312 429.542969 C 486 425.492188 500.679688 421.1875 517.640625 419.164062 C 528.777344 417.898438 539.914062 417.644531 551.304688 418.152344 C 551.8125 421.695312 551.8125 425.492188 551.8125 429.539062 Z M 537.636719 378.160156 C 542.445312 385.5 547.257812 395.371094 549.789062 407.519531 C 538.398438 407.015625 527.257812 407.265625 516.375 408.53125 C 506.503906 409.796875 497.390625 411.570312 488.785156 413.847656 C 487.265625 412.328125 484.734375 409.292969 484.226562 405.496094 C 483.976562 401.953125 485.492188 398.40625 488.53125 394.359375 C 504.476562 390.308594 520.929688 384.992188 537.636719 378.160156 Z M 556.875 337.40625 C 556.875 342.21875 552.824219 346.265625 548.015625 346.265625 L 545.484375 346.265625 C 540.675781 346.265625 536.625 342.21875 536.625 337.40625 L 536.625 336.648438 C 536.625 336.394531 536.878906 336.140625 537.132812 336.140625 L 556.367188 336.140625 C 556.621094 336.140625 556.875 336.394531 556.875 336.648438 Z M 556.875 337.40625"/></g><path fill="#E1D83D" d="M 396.140625 423.214844 L 413.859375 423.214844 C 416.644531 423.214844 418.921875 420.933594 418.921875 418.152344 C 418.921875 415.367188 416.644531 413.089844 413.859375 413.089844 L 396.140625 413.089844 C 393.355469 413.089844 391.078125 415.367188 391.078125 418.152344 C 391.078125 420.933594 393.355469 423.214844 396.140625 423.214844 Z M 396.140625 423.214844"/><path fill="#E1D83D" d="M 484.734375 465.230469 L 325.265625 465.230469 C 322.480469 465.230469 320.203125 467.507812 320.203125 470.292969 C 320.203125 473.078125 322.480469 475.355469 325.265625 475.355469 L 484.734375 475.355469 C 487.519531 475.355469 489.796875 473.078125 489.796875 470.292969 C 489.796875 467.507812 487.519531 465.230469 484.734375 465.230469 Z M 484.734375 465.230469"/><path fill="#E1D83D" d="M 334.125 457.636719 L 475.875 457.636719 C 478.660156 457.636719 480.9375 455.359375 480.9375 452.574219 C 480.9375 449.789062 478.660156 447.511719 475.875 447.511719 L 334.125 447.511719 C 331.339844 447.511719 329.0625 449.789062 329.0625 452.574219 C 329.0625 455.359375 331.339844 457.636719 334.125 457.636719 Z M 334.125 457.636719"/></svg>