<svg xmlns="http://www.w3.org/2000/svg" width="810" viewBox="0 0 810 810" height="810" version="1.0"><defs><clipPath id="a"><path d="M 243 273.042969 L 567 273.042969 L 567 537.042969 L 243 537.042969 Z M 243 273.042969"/></clipPath></defs><path fill="#FFF" d="M-81 -81H891V891H-81z"/><path fill="#FFF" d="M-81 -81H891V891H-81z"/><path fill="#E1D83D" d="M 430.40625 402.269531 L 291.503906 402.269531 C 289.039062 402.269531 287.042969 404.265625 287.042969 406.730469 L 287.042969 503.886719 C 287.042969 506.351562 289.039062 508.351562 291.503906 508.351562 L 430.40625 508.351562 C 432.871094 508.351562 434.867188 506.351562 434.867188 503.886719 L 434.867188 406.730469 C 434.867188 404.265625 432.867188 402.269531 430.40625 402.269531 Z M 295.964844 499.421875 L 295.964844 437.996094 L 317.941406 438.003906 C 319.996094 438.003906 321.660156 436.339844 321.660156 434.285156 C 321.660156 432.230469 319.996094 430.566406 317.945312 430.566406 L 295.964844 430.558594 L 295.964844 411.195312 L 425.945312 411.195312 L 425.945312 430.582031 L 330.703125 430.566406 C 328.648438 430.566406 326.984375 432.230469 326.984375 434.285156 C 326.984375 436.339844 328.648438 438.003906 330.699219 438.003906 L 425.945312 438.019531 L 425.945312 499.425781 L 295.964844 499.425781 Z M 295.964844 499.421875"/><g clip-path="url(#a)"><path fill="#E1D83D" d="M 278.566406 276.34375 C 243.058594 347.71875 243.058594 347.71875 243.058594 349.558594 C 243.058594 363.945312 249.992188 377.058594 261.75 385.222656 L 261.75 525.152344 L 255.800781 525.152344 C 252.515625 525.152344 249.855469 527.816406 249.855469 531.101562 C 249.855469 534.386719 252.515625 537.050781 255.800781 537.050781 L 554.867188 537.050781 C 558.152344 537.050781 560.816406 534.386719 560.816406 531.101562 C 560.816406 527.816406 558.152344 525.152344 554.867188 525.152344 L 548.921875 525.152344 L 548.921875 384.71875 C 560.238281 376.507812 566.941406 363.523438 566.941406 349.558594 C 566.941406 347.789062 566.941406 347.789062 533.515625 276.46875 C 532.539062 274.378906 530.4375 273.042969 528.132812 273.042969 L 283.890625 273.042969 C 281.632812 273.042969 279.570312 274.320312 278.566406 276.34375 Z M 254.976562 350.804688 C 255.191406 350.359375 255.476562 349.773438 255.8125 349.085938 L 321.699219 348.996094 C 321.199219 366.871094 306.316406 381.261719 288.082031 381.261719 L 287.101562 381.261719 C 281.628906 381.261719 276.25 379.933594 271.449219 377.441406 C 271.148438 377.160156 270.816406 376.90625 270.449219 376.6875 C 261.109375 371.105469 255.390625 361.496094 254.976562 350.804688 Z M 459.492188 507.339844 L 471.191406 507.351562 C 471.191406 507.351562 471.191406 507.351562 471.195312 507.351562 C 473.246094 507.351562 474.910156 505.6875 474.910156 503.636719 C 474.914062 501.582031 473.25 499.914062 471.199219 499.914062 L 459.492188 499.902344 L 459.492188 437.207031 C 459.492188 422.605469 471.367188 410.730469 485.960938 410.730469 L 489.871094 410.730469 C 504.464844 410.730469 516.339844 422.609375 516.339844 437.207031 L 516.339844 499.925781 L 483.046875 499.921875 C 483.042969 499.921875 483.042969 499.921875 483.042969 499.921875 C 480.992188 499.921875 479.328125 501.585938 479.328125 503.640625 C 479.328125 505.695312 480.992188 507.359375 483.042969 507.359375 L 516.339844 507.363281 L 516.339844 525.152344 L 459.492188 525.152344 Z M 525.261719 525.152344 L 525.261719 437.207031 C 525.261719 417.6875 509.382812 401.808594 489.871094 401.808594 L 485.960938 401.808594 C 466.445312 401.808594 450.566406 417.6875 450.566406 437.207031 L 450.566406 525.152344 L 273.644531 525.152344 L 273.644531 388.03125 C 277.960938 389.449219 282.511719 390.1875 287.101562 390.1875 L 288.082031 390.1875 C 305.199219 390.1875 319.988281 380.136719 326.738281 365.683594 C 333.492188 380.136719 348.285156 390.1875 365.40625 390.1875 L 366.328125 390.1875 C 383.449219 390.1875 398.246094 380.136719 404.996094 365.683594 C 411.75 380.136719 426.539062 390.1875 443.652344 390.1875 L 444.589844 390.1875 C 461.703125 390.1875 476.496094 380.136719 483.246094 365.683594 C 490 380.136719 504.792969 390.1875 521.914062 390.1875 L 522.878906 390.1875 C 527.761719 390.1875 532.519531 389.351562 537.023438 387.78125 L 537.023438 525.152344 Z M 478.214844 348.777344 C 477.828125 366.753906 462.898438 381.261719 444.589844 381.261719 L 443.652344 381.261719 C 425.378906 381.261719 410.46875 366.804688 410.035156 348.871094 Z M 540.648438 375.992188 C 540.273438 376.238281 539.941406 376.527344 539.640625 376.839844 C 534.558594 379.730469 528.832031 381.261719 522.882812 381.261719 L 521.914062 381.261719 C 503.59375 381.261719 488.65625 366.746094 488.277344 348.765625 L 554.082031 348.675781 C 554.472656 349.519531 554.792969 350.226562 555.023438 350.738281 C 554.644531 360.929688 549.332031 370.304688 540.648438 375.992188 Z M 524.351562 284.945312 C 533.121094 303.664062 544.351562 327.679688 550.644531 341.242188 L 386.042969 341.46875 C 383.988281 341.46875 382.328125 343.136719 382.328125 345.191406 C 382.332031 347.242188 383.996094 348.90625 386.046875 348.90625 C 386.046875 348.90625 386.050781 348.90625 386.050781 348.90625 L 399.960938 348.886719 C 399.519531 366.8125 384.605469 381.261719 366.328125 381.261719 L 365.40625 381.261719 C 347.164062 381.261719 332.269531 366.863281 331.777344 348.984375 L 373.101562 348.929688 C 375.152344 348.925781 376.816406 347.257812 376.8125 345.207031 C 376.808594 343.152344 375.144531 341.492188 373.09375 341.492188 C 373.09375 341.492188 373.089844 341.492188 373.089844 341.492188 L 259.460938 341.644531 C 266.132812 328.105469 278.191406 303.8125 287.574219 284.945312 Z M 524.351562 284.945312"/></g><path fill="#E1D83D" d="M 468.964844 464.414062 C 466.003906 464.414062 463.609375 466.988281 463.609375 470.164062 L 463.609375 470.339844 C 463.609375 473.515625 466.003906 476.089844 468.964844 476.089844 C 471.9375 476.089844 474.332031 473.515625 474.332031 470.339844 L 474.332031 470.164062 C 474.332031 466.988281 471.9375 464.414062 468.964844 464.414062 Z M 468.964844 464.414062"/></svg>