<svg xmlns="http://www.w3.org/2000/svg" width="810" viewBox="0 0 810 810" height="810" version="1.0"><path fill="#FFF" d="M-81 -81H891V891H-81z"/><path fill="#FFF" d="M-81 -81H891V891H-81z"/><path fill="#E1D83D" d="M 404.335938 264.019531 C 403.242188 264.078125 402.230469 264.394531 401.296875 264.96875 C 400.367188 265.542969 399.625 266.300781 399.082031 267.25 L 243.871094 536.167969 C 243.730469 536.410156 243.605469 536.664062 243.496094 536.925781 C 243.390625 537.1875 243.300781 537.453125 243.226562 537.726562 C 243.152344 538 243.097656 538.273438 243.0625 538.554688 C 243.023438 538.835938 243.003906 539.117188 243.003906 539.398438 C 243.003906 539.679688 243.023438 539.960938 243.0625 540.242188 C 243.097656 540.523438 243.152344 540.796875 243.226562 541.070312 C 243.296875 541.34375 243.390625 541.609375 243.496094 541.871094 C 243.605469 542.132812 243.730469 542.382812 243.871094 542.628906 C 244.011719 542.875 244.167969 543.109375 244.339844 543.332031 C 244.511719 543.554688 244.699219 543.769531 244.898438 543.96875 C 245.097656 544.167969 245.308594 544.355469 245.53125 544.527344 C 245.757812 544.699219 245.992188 544.855469 246.234375 544.996094 C 246.480469 545.136719 246.734375 545.261719 246.992188 545.371094 C 247.253906 545.476562 247.519531 545.570312 247.792969 545.640625 C 248.066406 545.714844 248.34375 545.769531 248.625 545.808594 C 248.902344 545.84375 249.183594 545.863281 249.46875 545.863281 L 559.886719 545.863281 C 560.167969 545.863281 560.449219 545.84375 560.730469 545.808594 C 561.011719 545.769531 561.285156 545.714844 561.558594 545.640625 C 561.832031 545.570312 562.097656 545.476562 562.359375 545.371094 C 562.621094 545.261719 562.875 545.136719 563.117188 544.996094 C 563.363281 544.855469 563.597656 544.699219 563.820312 544.527344 C 564.042969 544.355469 564.257812 544.167969 564.457031 543.96875 C 564.65625 543.769531 564.839844 543.554688 565.011719 543.332031 C 565.183594 543.109375 565.339844 542.875 565.484375 542.628906 C 565.625 542.386719 565.75 542.132812 565.855469 541.871094 C 565.964844 541.609375 566.054688 541.34375 566.128906 541.070312 C 566.199219 540.796875 566.253906 540.523438 566.292969 540.242188 C 566.328125 539.960938 566.347656 539.679688 566.347656 539.398438 C 566.347656 539.117188 566.328125 538.835938 566.292969 538.554688 C 566.253906 538.273438 566.199219 538 566.128906 537.726562 C 566.054688 537.453125 565.964844 537.1875 565.855469 536.925781 C 565.746094 536.664062 565.621094 536.410156 565.480469 536.167969 L 410.273438 267.25 C 409.722656 266.296875 408.976562 265.53125 408.039062 264.960938 C 407.097656 264.386719 406.078125 264.070312 404.980469 264.019531 C 404.765625 264.007812 404.550781 264.007812 404.335938 264.019531 Z M 404.675781 283.410156 L 548.695312 532.933594 L 260.65625 532.933594 Z M 396.921875 364.214844 C 394.980469 364.214844 394.332031 365.511719 394.332031 366.804688 L 394.332031 460.539062 C 394.332031 462.476562 395.628906 463.113281 396.921875 463.113281 L 411.789062 463.113281 C 413.726562 463.113281 414.378906 461.832031 414.378906 460.539062 L 414.378906 366.804688 C 414.378906 364.867188 413.082031 364.214844 411.789062 364.214844 Z M 396.921875 481.21875 C 394.980469 481.21875 394.332031 482.515625 394.332031 483.808594 L 394.332031 500.613281 C 394.332031 502.550781 395.628906 503.203125 396.921875 503.203125 L 412.433594 503.203125 C 414.371094 503.203125 415.019531 501.90625 415.019531 500.613281 L 415.019531 483.808594 C 415.019531 481.867188 413.726562 481.21875 412.433594 481.21875 Z M 396.921875 481.21875"/></svg>