<svg xmlns="http://www.w3.org/2000/svg" width="810" viewBox="0 0 810 810" height="810" version="1.0"><defs><clipPath id="a"><path d="M 243 299.554688 L 567 299.554688 L 567 510.304688 L 243 510.304688 Z M 243 299.554688"/></clipPath></defs><path fill="#FFF" d="M-81 -81H891V891H-81z"/><path fill="#FFF" d="M-81 -81H891V891H-81z"/><path fill="#E1D83D" d="M 461.09375 324.894531 C 458.226562 324.894531 455.902344 327.214844 455.902344 330.082031 L 455.902344 404.929688 C 455.902344 407.796875 458.226562 410.117188 461.09375 410.117188 L 506.433594 410.117188 C 509.300781 410.117188 511.625 407.796875 511.625 404.929688 C 511.625 402.058594 509.300781 399.738281 506.433594 399.738281 L 466.285156 399.738281 L 466.285156 330.082031 C 466.285156 327.214844 463.960938 324.894531 461.09375 324.894531"/><path fill="#E1D83D" d="M 279.703125 426.003906 L 362.109375 426.003906 C 364.976562 426.003906 367.300781 423.683594 367.300781 420.816406 C 367.300781 417.949219 364.976562 415.628906 362.109375 415.628906 L 279.703125 415.628906 C 276.839844 415.628906 274.511719 417.949219 274.511719 420.816406 C 274.511719 423.683594 276.839844 426.003906 279.703125 426.003906"/><path fill="#E1D83D" d="M 310.683594 394.222656 L 362.109375 394.222656 C 364.976562 394.222656 367.300781 391.902344 367.300781 389.035156 C 367.300781 386.167969 364.976562 383.847656 362.109375 383.847656 L 310.683594 383.847656 C 307.816406 383.847656 305.492188 386.167969 305.492188 389.035156 C 305.492188 391.902344 307.816406 394.222656 310.683594 394.222656"/><g clip-path="url(#a)"><path fill="#E1D83D" d="M 461.09375 299.566406 C 423.421875 299.566406 388.800781 319.628906 369.9375 352.074219 L 341.652344 352.074219 C 338.785156 352.074219 336.460938 354.394531 336.460938 357.261719 C 336.460938 360.128906 338.785156 362.449219 341.652344 362.449219 L 372.90625 362.449219 C 373.421875 362.449219 373.886719 362.296875 374.355469 362.15625 C 374.386719 362.148438 374.417969 362.148438 374.449219 362.136719 C 374.996094 361.964844 375.476562 361.703125 375.925781 361.371094 C 376.039062 361.289062 376.160156 361.226562 376.269531 361.140625 C 376.609375 360.84375 376.871094 360.492188 377.128906 360.117188 C 377.242188 359.949219 377.414062 359.84375 377.515625 359.65625 C 394.179688 328.992188 426.207031 309.945312 461.09375 309.945312 C 513.5 309.945312 556.136719 352.554688 556.136719 404.929688 C 556.136719 457.300781 513.5 499.914062 461.09375 499.914062 C 426.167969 499.914062 394.125 480.832031 377.46875 450.117188 C 377.355469 449.90625 377.164062 449.769531 377.023438 449.582031 C 376.804688 449.285156 376.601562 448.996094 376.332031 448.753906 C 376.085938 448.535156 375.8125 448.386719 375.535156 448.21875 C 375.242188 448.042969 374.960938 447.867188 374.636719 447.75 C 374.304688 447.632812 373.96875 447.597656 373.621094 447.546875 C 373.378906 447.511719 373.160156 447.402344 372.90625 447.402344 L 248.734375 447.402344 C 245.867188 447.402344 243.542969 449.722656 243.542969 452.589844 C 243.542969 455.457031 245.867188 457.777344 248.734375 457.777344 L 369.9375 457.777344 C 388.800781 490.222656 423.410156 510.289062 461.09375 510.289062 C 519.226562 510.289062 566.519531 463.027344 566.519531 404.929688 C 566.519531 346.828125 519.226562 299.566406 461.09375 299.566406"/></g></svg>