<svg xmlns="http://www.w3.org/2000/svg" width="810" viewBox="0 0 810 810" height="810" version="1.0"><defs><clipPath id="a"><path d="M 133.425781 133.425781 L 676.425781 133.425781 L 676.425781 676.425781 L 133.425781 676.425781 Z M 133.425781 133.425781"/></clipPath></defs><path fill="#FFF" d="M-81 -81H891V891H-81z"/><path fill="#FFF" d="M-81 -81H891V891H-81z"/><g clip-path="url(#a)"><path fill="#FFF" d="M 404.925781 662.832031 C 262.378906 662.832031 147.019531 547.472656 147.019531 404.925781 C 147.019531 262.378906 262.378906 147.019531 404.925781 147.019531 C 547.472656 147.019531 662.878906 262.378906 662.878906 404.925781 C 662.878906 547.472656 547.472656 662.832031 404.925781 662.832031 Z M 404.925781 133.425781 C 254.90625 133.425781 133.425781 254.90625 133.425781 404.925781 C 133.425781 554.945312 254.90625 676.425781 404.925781 676.425781 C 554.945312 676.425781 676.425781 554.945312 676.425781 404.925781 C 676.425781 254.90625 554.945312 133.425781 404.925781 133.425781"/></g><path fill="#FFF" d="M 290.242188 348.570312 C 294.289062 348.570312 296.992188 345.871094 296.992188 341.824219 C 296.992188 330.253906 306.488281 320.757812 318.054688 320.757812 C 329.578125 320.757812 339.074219 330.253906 339.074219 341.824219 C 339.074219 345.871094 341.824219 348.570312 345.871094 348.570312 C 349.921875 348.570312 352.667969 345.871094 352.667969 341.824219 C 352.667969 322.78125 337.050781 307.210938 318.054688 307.210938 C 299.015625 307.210938 283.445312 322.78125 283.445312 341.824219 C 283.445312 345.871094 286.144531 348.570312 290.242188 348.570312"/><path fill="#FFF" d="M 464.652344 348.570312 C 468.703125 348.570312 471.449219 345.871094 471.449219 341.824219 C 471.449219 330.253906 480.945312 320.757812 492.46875 320.757812 C 504.039062 320.757812 513.535156 330.253906 513.535156 341.824219 C 513.535156 345.871094 516.234375 348.570312 520.285156 348.570312 C 523.707031 348.570312 527.128906 345.871094 527.128906 341.824219 C 527.128906 322.78125 511.511719 307.210938 492.46875 307.210938 C 473.476562 307.210938 457.855469 322.78125 457.855469 341.824219 C 457.855469 345.871094 460.605469 348.570312 464.652344 348.570312"/><path fill="#FFF" d="M 617.371094 398.128906 L 573.9375 398.128906 C 569.839844 398.128906 567.140625 400.828125 567.140625 404.925781 C 567.140625 409.023438 569.839844 411.722656 573.9375 411.722656 L 588.882812 411.722656 C 585.460938 510.160156 504.710938 588.882812 404.925781 588.882812 C 305.136719 588.882812 224.390625 510.160156 220.96875 411.722656 L 235.914062 411.722656 C 239.335938 411.722656 242.710938 409.023438 242.710938 404.925781 C 242.710938 400.828125 240.011719 398.128906 235.914062 398.128906 L 192.476562 398.128906 C 188.429688 398.128906 185.679688 400.828125 185.679688 404.925781 C 185.679688 409.023438 188.429688 411.722656 192.476562 411.722656 L 207.421875 411.722656 C 211.472656 516.910156 297.664062 602.429688 404.925781 602.429688 C 512.183594 602.429688 598.378906 517.585938 602.429688 411.722656 L 617.371094 411.722656 C 621.421875 411.722656 624.167969 409.023438 624.167969 404.925781 C 624.167969 400.828125 621.421875 398.128906 617.371094 398.128906"/></svg>