<svg xmlns="http://www.w3.org/2000/svg" width="810" viewBox="0 0 810 810" height="810" version="1.0"><defs><clipPath id="a"><path d="M 174.371094 162 L 535 162 L 535 429 L 174.371094 429 Z M 174.371094 162"/></clipPath></defs><path fill="#FFF" d="M-81 -81H891V891H-81z"/><path fill="#FFF" d="M-81 -81H891V891H-81z"/><path fill="#FFF" d="M-81 -81H891V891H-81z"/><path fill="#FFF" d="M 382.03125 542.351562 C 382.78125 542.351562 383.546875 542.210938 384.285156 541.914062 C 387.367188 540.667969 388.863281 537.160156 387.617188 534.074219 L 345.351562 429.367188 C 344.109375 426.277344 340.597656 424.792969 337.511719 426.035156 C 334.429688 427.28125 332.9375 430.789062 334.183594 433.871094 L 376.449219 538.582031 C 377.394531 540.929688 379.648438 542.351562 382.03125 542.351562"/><path fill="#FFF" d="M 356.160156 581.933594 C 354.425781 586.546875 354.589844 591.566406 356.628906 596.054688 L 362.085938 608.082031 C 364.121094 612.574219 367.785156 616.007812 372.402344 617.742188 C 376.589844 619.316406 381.109375 619.328125 385.269531 617.785156 L 391.609375 631.835938 C 396.148438 641.902344 406.207031 647.929688 416.675781 647.929688 C 420.265625 647.929688 423.902344 647.214844 427.378906 645.71875 C 440.824219 639.9375 447.324219 624.671875 442.195312 610.972656 L 374.847656 431.214844 C 373.679688 428.097656 370.207031 426.515625 367.09375 427.6875 C 363.980469 428.851562 362.402344 432.324219 363.570312 435.4375 L 430.910156 615.195312 C 433.789062 622.867188 430.148438 631.417969 422.621094 634.652344 C 414.996094 637.9375 406.007812 634.449219 402.589844 626.878906 L 393.789062 607.378906 C 393.132812 605.921875 391.921875 604.78125 390.421875 604.222656 C 388.929688 603.660156 387.273438 603.707031 385.8125 604.371094 L 381.550781 606.300781 C 379.988281 607.011719 378.246094 607.070312 376.640625 606.464844 C 375.035156 605.863281 373.761719 604.667969 373.050781 603.105469 L 367.597656 591.082031 C 366.890625 589.519531 366.832031 587.777344 367.433594 586.171875 C 368.039062 584.566406 369.230469 583.292969 370.796875 582.582031 L 375.121094 580.621094 C 378.144531 579.25 379.492188 575.6875 378.125 572.65625 L 364.894531 543.335938 C 364.234375 541.878906 363.023438 540.742188 361.527344 540.179688 C 360.035156 539.617188 358.371094 539.667969 356.914062 540.332031 L 352.53125 542.316406 C 349.308594 543.777344 345.496094 542.347656 344.03125 539.121094 L 338.578125 527.09375 C 337.871094 525.53125 337.8125 523.789062 338.414062 522.1875 C 339.019531 520.578125 340.214844 519.304688 341.773438 518.59375 L 346.222656 516.578125 C 349.246094 515.207031 350.59375 511.644531 349.226562 508.617188 L 338.253906 484.300781 C 336.933594 481.371094 333.542969 480 330.554688 481.179688 L 324.296875 483.648438 C 321.003906 484.953125 317.265625 483.328125 315.96875 480.03125 L 311.117188 467.75 C 310.488281 466.152344 310.519531 464.410156 311.203125 462.835938 C 311.886719 461.261719 313.140625 460.050781 314.734375 459.421875 L 319.292969 457.621094 C 320.824219 457.015625 322.042969 455.808594 322.664062 454.28125 C 323.285156 452.757812 323.25 451.046875 322.570312 449.539062 L 316.765625 436.667969 C 315.6875 434.289062 313.199219 432.855469 310.605469 433.164062 C 288.378906 435.652344 265.957031 430.097656 247.476562 417.511719 C 226.800781 403.425781 212.851562 382.132812 208.191406 357.554688 C 203.53125 332.976562 208.71875 308.054688 222.804688 287.382812 C 227.117188 281.054688 232.167969 275.277344 237.828125 270.21875 C 240.308594 268.003906 240.519531 264.195312 238.304688 261.71875 C 236.085938 259.234375 232.277344 259.023438 229.800781 261.246094 C 223.414062 266.953125 217.710938 273.464844 212.851562 280.597656 C 180.035156 328.769531 192.523438 394.652344 240.695312 427.464844 C 260.332031 440.847656 283.921875 447.1875 307.550781 445.535156 L 309.015625 448.785156 C 305.046875 450.707031 301.929688 453.949219 300.152344 458.039062 C 298.191406 462.566406 298.105469 467.582031 299.914062 472.167969 L 304.765625 484.457031 C 308.5 493.925781 319.246094 498.589844 328.71875 494.855469 L 329.640625 494.492188 L 335.789062 508.121094 C 331.792969 510.230469 328.746094 513.679688 327.140625 517.945312 C 325.40625 522.5625 325.570312 527.578125 327.609375 532.074219 L 333.066406 544.097656 C 335.097656 548.589844 338.765625 552.019531 343.382812 553.753906 C 347.613281 555.347656 352.183594 555.34375 356.378906 553.757812 L 364.6875 572.171875 C 360.75 574.285156 357.746094 577.710938 356.160156 581.933594"/><path fill="#FFF" d="M 461.515625 346.152344 C 459.601562 348.875 460.25 352.628906 462.96875 354.546875 L 613.363281 460.621094 C 620.054688 465.34375 621.855469 474.457031 617.464844 481.367188 C 613.007812 488.382812 603.613281 490.558594 596.53125 486.226562 L 578.28125 475.066406 C 576.914062 474.230469 575.269531 473.96875 573.722656 474.347656 C 572.164062 474.722656 570.824219 475.703125 569.992188 477.070312 L 567.558594 481.066406 C 566.667969 482.527344 565.257812 483.558594 563.589844 483.964844 C 561.929688 484.367188 560.199219 484.097656 558.738281 483.207031 L 547.457031 476.339844 C 545.992188 475.449219 544.960938 474.039062 544.558594 472.371094 C 544.152344 470.707031 544.421875 468.980469 545.316406 467.519531 L 547.785156 463.460938 C 549.511719 460.621094 548.617188 456.917969 545.785156 455.191406 L 518.339844 438.40625 C 516.976562 437.574219 515.332031 437.316406 513.78125 437.691406 C 512.226562 438.066406 510.886719 439.046875 510.050781 440.414062 L 507.550781 444.523438 C 506.660156 445.988281 505.25 447.015625 503.582031 447.421875 C 501.917969 447.820312 500.195312 447.5625 498.726562 446.667969 L 487.449219 439.800781 C 484.425781 437.957031 483.464844 434 485.304688 430.976562 L 487.84375 426.800781 C 489.574219 423.964844 488.675781 420.261719 485.84375 418.535156 L 463.085938 404.617188 C 460.347656 402.9375 456.769531 403.710938 454.964844 406.367188 L 451.183594 411.933594 C 449.191406 414.863281 445.195312 415.625 442.261719 413.632812 L 431.34375 406.210938 C 428.414062 404.222656 427.648438 400.222656 429.640625 397.296875 L 432.394531 393.242188 C 433.320312 391.878906 433.644531 390.199219 433.300781 388.585938 C 432.949219 386.972656 431.957031 385.578125 430.554688 384.71875 L 418.511719 377.351562 C 416.277344 375.984375 413.425781 376.222656 411.441406 377.921875 C 394.46875 392.503906 372.816406 400.53125 350.457031 400.53125 C 298.820312 400.53125 256.804688 358.515625 256.804688 306.871094 C 256.804688 274.660156 273.054688 245.089844 300.277344 227.78125 C 303.085938 225.996094 303.910156 222.273438 302.125 219.464844 C 300.339844 216.660156 296.621094 215.832031 293.8125 217.617188 C 263.09375 237.148438 244.753906 270.519531 244.753906 306.871094 C 244.753906 365.160156 292.171875 412.574219 350.457031 412.574219 C 374.21875 412.574219 397.28125 404.539062 415.886719 389.867188 L 418.921875 391.726562 C 416.726562 395.546875 415.972656 399.988281 416.8125 404.363281 C 417.738281 409.207031 420.492188 413.40625 424.570312 416.175781 L 435.492188 423.601562 C 443.914062 429.320312 455.417969 427.125 461.144531 418.703125 L 461.703125 417.886719 L 474.457031 425.691406 C 469.933594 434.242188 472.808594 444.988281 481.183594 450.089844 L 492.464844 456.957031 C 496.675781 459.519531 501.632812 460.292969 506.425781 459.125 C 510.824219 458.058594 514.597656 455.476562 517.171875 451.808594 L 534.402344 462.351562 C 532.339844 466.3125 531.789062 470.835938 532.855469 475.214844 C 534.019531 480.011719 536.976562 484.0625 541.191406 486.625 L 552.472656 493.496094 C 556.683594 496.0625 561.640625 496.832031 566.441406 495.667969 C 570.789062 494.609375 574.527344 492.074219 577.097656 488.460938 L 590.242188 496.5 C 594.652344 499.195312 599.5625 500.484375 604.425781 500.484375 C 613.515625 500.484375 622.441406 495.988281 627.628906 487.832031 C 635.476562 475.488281 632.257812 459.210938 620.304688 450.777344 L 469.910156 344.703125 C 467.1875 342.785156 463.433594 343.4375 461.515625 346.152344"/><g clip-path="url(#a)"><path fill="#FFF" d="M 198.78125 288.867188 C 201.441406 286.859375 201.964844 283.082031 199.957031 280.425781 C 191.191406 268.835938 186.558594 255 186.558594 240.421875 C 186.558594 203.800781 216.347656 174.011719 252.972656 174.011719 C 289.589844 174.011719 319.382812 203.800781 319.382812 240.421875 C 319.382812 243.792969 319.113281 247.125 318.617188 250.410156 C 295.625 250.734375 277.015625 269.527344 277.015625 292.597656 C 277.015625 315.867188 295.945312 334.800781 319.214844 334.800781 C 342.488281 334.800781 361.421875 315.867188 361.421875 292.597656 C 361.421875 281.136719 356.90625 270.417969 348.703125 262.410156 C 346.328125 260.085938 342.511719 260.125 340.1875 262.507812 C 337.863281 264.886719 337.910156 268.699219 340.289062 271.023438 C 346.152344 276.746094 349.375 284.410156 349.375 292.597656 C 349.375 309.226562 335.847656 322.753906 319.214844 322.753906 C 302.585938 322.753906 289.058594 309.226562 289.058594 292.597656 C 289.058594 277.214844 300.640625 264.515625 315.535156 262.6875 C 312.566406 271.035156 307.941406 278.769531 301.8125 285.421875 C 299.558594 287.867188 299.714844 291.675781 302.15625 293.929688 C 303.316406 294.996094 304.78125 295.523438 306.242188 295.523438 C 307.859375 295.523438 309.480469 294.871094 310.667969 293.585938 C 324.054688 279.070312 331.429688 260.183594 331.429688 240.421875 C 331.429688 231.917969 330.046875 223.730469 327.535156 216.058594 C 334.992188 214.183594 342.679688 213.214844 350.457031 213.214844 C 402.105469 213.214844 444.113281 255.230469 444.113281 306.871094 C 444.113281 315.894531 442.816406 324.851562 440.25 333.515625 C 440.242188 333.535156 440.242188 333.558594 440.238281 333.582031 C 437.789062 341.832031 434.21875 349.707031 429.589844 356.996094 C 427.839844 359.761719 428.609375 363.414062 431.328125 365.234375 L 525.207031 427.972656 C 526.238281 428.660156 527.402344 428.988281 528.550781 428.988281 C 530.496094 428.988281 532.402344 428.046875 533.5625 426.308594 C 535.410156 423.546875 534.667969 419.808594 531.90625 417.960938 L 442.777344 358.394531 C 446.898438 351.023438 450.121094 343.191406 452.367188 335.042969 C 452.402344 334.90625 452.40625 334.773438 452.4375 334.636719 C 454.902344 325.582031 456.164062 316.257812 456.164062 306.871094 C 456.164062 248.589844 408.746094 201.171875 350.457031 201.171875 C 341.078125 201.171875 331.8125 202.40625 322.847656 204.824219 C 309.851562 179.414062 283.417969 161.964844 252.972656 161.964844 C 209.707031 161.964844 174.511719 197.160156 174.511719 240.421875 C 174.511719 257.644531 179.988281 273.988281 190.347656 287.695312 C 192.351562 290.34375 196.128906 290.871094 198.78125 288.867188"/></g></svg>