<svg xmlns="http://www.w3.org/2000/svg" width="810" viewBox="0 0 810 810" height="810" version="1.0"><path fill="#FFF" d="M-81 -81H891V891H-81z"/><path fill="#FFF" d="M-81 -81H891V891H-81z"/><path fill="#E1D83D" d="M 381.925781 248.722656 C 372.976562 248.992188 364.328125 253.648438 359.398438 261.785156 L 357.65625 264.671875 C 355.171875 268.773438 350.789062 271.296875 346 271.394531 L 345.988281 271.394531 L 342.609375 271.472656 C 328.109375 271.773438 316.300781 283.566406 316.003906 298.050781 L 315.925781 301.425781 C 315.828125 306.210938 313.292969 310.59375 309.195312 313.070312 L 306.308594 314.820312 C 293.902344 322.324219 289.570312 338.441406 296.558594 351.136719 L 296.570312 351.136719 L 298.195312 354.097656 C 300.507812 358.292969 300.507812 363.355469 298.195312 367.546875 L 296.570312 370.496094 C 289.582031 383.191406 293.90625 399.308594 306.320312 406.8125 L 309.207031 408.550781 C 313.3125 411.035156 315.839844 415.410156 315.941406 420.195312 L 315.941406 420.207031 L 316.015625 423.582031 C 316.261719 435.296875 324.082031 445.144531 334.714844 448.675781 L 300.414062 522.929688 C 300.296875 523.179688 300.199219 523.4375 300.113281 523.699219 C 300.03125 523.960938 299.964844 524.230469 299.914062 524.5 C 299.863281 524.769531 299.832031 525.042969 299.816406 525.320312 C 299.800781 525.59375 299.800781 525.871094 299.820312 526.144531 C 299.835938 526.421875 299.875 526.695312 299.925781 526.964844 C 299.980469 527.234375 300.050781 527.5 300.136719 527.761719 C 300.222656 528.023438 300.324219 528.28125 300.445312 528.53125 C 300.5625 528.777344 300.695312 529.019531 300.84375 529.253906 C 300.992188 529.484375 301.15625 529.707031 301.332031 529.917969 C 301.507812 530.128906 301.699219 530.332031 301.898438 530.519531 C 302.101562 530.707031 302.316406 530.882812 302.539062 531.042969 C 302.761719 531.207031 302.996094 531.351562 303.238281 531.484375 C 303.480469 531.617188 303.730469 531.734375 303.984375 531.835938 C 304.242188 531.9375 304.503906 532.019531 304.773438 532.089844 C 305.039062 532.15625 305.3125 532.207031 305.585938 532.242188 C 305.859375 532.277344 306.132812 532.292969 306.410156 532.292969 L 349.457031 532.292969 L 373.878906 562.796875 C 374.058594 563.019531 374.246094 563.226562 374.449219 563.425781 C 374.65625 563.621094 374.871094 563.804688 375.097656 563.972656 C 375.324219 564.140625 375.5625 564.292969 375.808594 564.433594 C 376.054688 564.570312 376.308594 564.691406 376.574219 564.796875 C 376.835938 564.902344 377.105469 564.992188 377.378906 565.0625 C 377.652344 565.132812 377.929688 565.1875 378.210938 565.222656 C 378.492188 565.257812 378.773438 565.273438 379.054688 565.273438 C 379.339844 565.273438 379.621094 565.253906 379.902344 565.214844 C 380.183594 565.179688 380.460938 565.125 380.734375 565.050781 C 381.007812 564.976562 381.273438 564.886719 381.535156 564.78125 C 381.796875 564.675781 382.050781 564.550781 382.296875 564.410156 C 382.542969 564.273438 382.78125 564.117188 383.007812 563.945312 C 383.234375 563.777344 383.445312 563.59375 383.648438 563.394531 C 383.851562 563.199219 384.042969 562.988281 384.214844 562.765625 C 384.390625 562.542969 384.550781 562.3125 384.699219 562.070312 C 384.84375 561.828125 384.972656 561.578125 385.085938 561.316406 L 405.65625 514.363281 L 426.222656 561.316406 C 426.335938 561.578125 426.464844 561.828125 426.613281 562.070312 C 426.757812 562.3125 426.917969 562.542969 427.09375 562.765625 C 427.269531 562.988281 427.457031 563.199219 427.660156 563.394531 C 427.863281 563.59375 428.078125 563.777344 428.304688 563.945312 C 428.53125 564.117188 428.765625 564.273438 429.011719 564.410156 C 429.257812 564.550781 429.511719 564.675781 429.773438 564.78125 C 430.035156 564.886719 430.304688 564.976562 430.578125 565.050781 C 430.851562 565.125 431.128906 565.179688 431.410156 565.214844 C 431.6875 565.253906 431.972656 565.273438 432.253906 565.273438 C 432.535156 565.273438 432.820312 565.257812 433.101562 565.222656 C 433.378906 565.1875 433.65625 565.132812 433.933594 565.0625 C 434.207031 564.992188 434.472656 564.902344 434.738281 564.796875 C 435 564.691406 435.253906 564.570312 435.5 564.433594 C 435.75 564.292969 435.984375 564.140625 436.210938 563.972656 C 436.441406 563.804688 436.65625 563.621094 436.859375 563.425781 C 437.0625 563.226562 437.253906 563.019531 437.429688 562.796875 L 461.855469 532.292969 L 504.898438 532.292969 C 505.175781 532.292969 505.449219 532.277344 505.726562 532.242188 C 506 532.207031 506.269531 532.15625 506.539062 532.089844 C 506.804688 532.019531 507.066406 531.9375 507.324219 531.835938 C 507.582031 531.734375 507.832031 531.617188 508.074219 531.484375 C 508.316406 531.351562 508.546875 531.207031 508.769531 531.042969 C 508.996094 530.882812 509.207031 530.707031 509.410156 530.519531 C 509.613281 530.332031 509.800781 530.128906 509.976562 529.917969 C 510.152344 529.707031 510.316406 529.484375 510.464844 529.253906 C 510.613281 529.019531 510.75 528.777344 510.867188 528.53125 C 510.984375 528.28125 511.085938 528.023438 511.175781 527.761719 C 511.261719 527.5 511.332031 527.234375 511.382812 526.964844 C 511.4375 526.695312 511.472656 526.421875 511.492188 526.144531 C 511.511719 525.871094 511.511719 525.59375 511.496094 525.320312 C 511.480469 525.042969 511.445312 524.769531 511.394531 524.5 C 511.347656 524.230469 511.28125 523.960938 511.195312 523.699219 C 511.113281 523.4375 511.011719 523.179688 510.894531 522.929688 L 476.542969 448.5625 C 487 444.925781 494.652344 435.171875 494.894531 423.582031 L 494.894531 423.570312 L 494.96875 420.207031 L 494.96875 420.195312 C 495.070312 415.410156 497.605469 411.023438 501.703125 408.550781 L 504.601562 406.796875 C 517.007812 399.296875 521.328125 383.191406 514.339844 370.496094 L 514.328125 370.484375 L 512.675781 367.507812 C 510.378906 363.320312 510.382812 358.269531 512.6875 354.085938 L 514.328125 351.136719 L 514.328125 351.121094 C 521.3125 338.433594 516.992188 322.328125 504.589844 314.820312 L 504.578125 314.808594 L 501.6875 313.070312 C 497.585938 310.585938 495.054688 306.210938 494.957031 301.425781 L 494.957031 301.410156 L 494.878906 298.050781 L 494.878906 298.035156 C 494.578125 283.554688 482.777344 271.753906 468.277344 271.460938 L 464.898438 271.382812 C 460.105469 271.285156 455.71875 268.75 453.238281 264.660156 L 451.484375 261.773438 C 443.976562 249.371094 427.839844 245.054688 415.132812 252.035156 L 415.132812 252.046875 L 412.167969 253.671875 C 407.96875 255.980469 402.902344 255.980469 398.703125 253.671875 L 395.75 252.046875 C 392.574219 250.300781 389.1875 249.261719 385.769531 248.878906 C 384.488281 248.734375 383.207031 248.6875 381.925781 248.722656 Z M 381.59375 261.875 C 384.203125 261.6875 386.910156 262.238281 389.394531 263.601562 L 392.332031 265.226562 C 400.484375 269.710938 410.402344 269.710938 418.550781 265.226562 L 421.503906 263.589844 L 421.503906 263.601562 C 428.128906 259.964844 436.277344 262.136719 440.191406 268.601562 L 441.945312 271.488281 C 446.753906 279.429688 455.324219 284.378906 464.613281 284.574219 L 468.003906 284.652344 C 475.566406 284.804688 481.535156 290.753906 481.6875 298.304688 L 481.6875 298.320312 L 481.753906 301.695312 C 481.945312 310.984375 486.902344 319.542969 494.855469 324.355469 L 497.742188 326.105469 C 504.207031 330.011719 506.394531 338.144531 502.757812 344.757812 L 501.121094 347.722656 C 496.632812 355.863281 496.632812 365.757812 501.121094 373.898438 L 501.132812 373.910156 L 501.132812 373.921875 L 502.773438 376.847656 C 506.414062 383.464844 504.21875 391.605469 497.753906 395.515625 L 494.867188 397.265625 C 486.90625 402.074219 481.957031 410.636719 481.765625 419.925781 L 481.699219 423.300781 L 481.699219 423.3125 C 481.546875 430.867188 475.578125 436.8125 468.019531 436.96875 L 464.625 437.046875 C 455.332031 437.242188 446.769531 442.179688 441.957031 450.121094 L 441.957031 450.132812 L 440.203125 453.019531 C 436.289062 459.480469 428.140625 461.65625 421.515625 458.015625 L 421.515625 458.03125 L 418.5625 456.394531 C 410.414062 451.910156 400.496094 451.910156 392.347656 456.394531 L 389.394531 458.03125 L 389.394531 458.015625 C 382.769531 461.65625 374.621094 459.476562 370.707031 453.019531 L 368.953125 450.132812 C 364.144531 442.191406 355.574219 437.242188 346.285156 437.046875 L 346.269531 437.046875 L 342.890625 436.96875 C 335.332031 436.8125 329.363281 430.867188 329.210938 423.3125 L 329.210938 423.300781 L 329.144531 419.925781 C 328.953125 410.636719 323.996094 402.078125 316.042969 397.265625 L 313.15625 395.515625 C 306.683594 391.605469 304.496094 383.464844 308.136719 376.847656 L 309.761719 373.910156 L 309.761719 373.898438 C 314.246094 365.757812 314.25 355.859375 309.761719 347.722656 L 308.125 344.773438 L 308.136719 344.773438 C 304.496094 338.15625 306.675781 330.015625 313.140625 326.105469 L 316.03125 324.355469 C 323.980469 319.546875 328.9375 310.988281 329.132812 301.707031 L 329.132812 301.695312 L 329.210938 298.320312 C 329.363281 290.765625 335.316406 284.804688 342.878906 284.652344 L 342.890625 284.652344 L 346.269531 284.585938 C 355.570312 284.394531 364.136719 279.441406 368.953125 271.5 L 370.707031 268.613281 C 372.664062 265.382812 375.671875 263.210938 379.027344 262.316406 C 379.863281 262.089844 380.722656 261.941406 381.59375 261.875 Z M 453.535156 315.207031 L 399.128906 400.164062 L 355.402344 360.847656 L 346.554688 370.664062 L 401.863281 420.375 L 464.652344 322.320312 Z M 462.898438 450.53125 L 494.570312 519.101562 L 458.683594 519.101562 C 457.679688 519.101562 456.726562 519.320312 455.820312 519.753906 C 454.917969 520.1875 454.152344 520.792969 453.523438 521.578125 L 433.933594 546.027344 L 412.863281 497.886719 L 423.980469 472.507812 C 434.589844 474.164062 445.65625 469.496094 451.5 459.847656 L 453.253906 456.960938 C 455.382812 453.449219 458.925781 451.199219 462.898438 450.53125 Z M 348.386719 450.585938 C 352.207031 451.332031 355.601562 453.566406 357.65625 456.960938 L 359.410156 459.847656 C 366.921875 472.238281 383.054688 476.566406 395.765625 469.585938 L 395.765625 469.570312 L 398.730469 467.949219 C 402.757812 465.730469 407.570312 465.703125 411.664062 467.742188 L 377.375 546.027344 L 357.785156 521.578125 C 357.160156 520.792969 356.394531 520.1875 355.488281 519.753906 C 354.585938 519.320312 353.632812 519.101562 352.628906 519.101562 L 316.738281 519.101562 Z M 348.386719 450.585938"/></svg>