<svg xmlns="http://www.w3.org/2000/svg" width="810" viewBox="0 0 810 810" height="810" version="1.0"><defs><clipPath id="a"><path d="M 266 243 L 544.222656 243 L 544.222656 567 L 266 567 Z M 266 243"/></clipPath></defs><path fill="#FFF" d="M-81 -81H891V891H-81z"/><path fill="#FFF" d="M-81 -81H891V891H-81z"/><g clip-path="url(#a)"><path fill="#E1D83D" d="M 405.097656 243 C 348.917969 243 303.414062 289.738281 303.414062 346.691406 C 303.414062 384.296875 327.570312 424.074219 350.640625 455.988281 C 373.796875 487.808594 396.777344 511.3125 396.777344 511.3125 C 399.039062 513.574219 402.023438 514.839844 405.097656 514.839844 C 408.175781 514.839844 411.160156 513.574219 413.421875 511.3125 C 413.421875 511.3125 436.402344 487.808594 459.46875 455.988281 C 482.628906 424.074219 506.785156 384.296875 506.785156 346.691406 C 506.785156 289.648438 461.277344 243 405.097656 243 Z M 405.097656 266.144531 C 448.433594 266.144531 483.625 301.941406 483.625 346.691406 C 483.625 373.539062 462.726562 412.050781 440.742188 442.425781 C 422.921875 467.015625 411.160156 478.859375 405.097656 485.277344 C 399.039062 478.859375 387.277344 467.015625 369.457031 442.425781 C 347.472656 412.050781 326.574219 373.539062 326.574219 346.691406 C 326.574219 301.941406 361.765625 266.144531 405.097656 266.144531 Z M 405.097656 312.429688 C 392.34375 312.429688 381.941406 322.824219 381.941406 335.570312 C 381.941406 348.320312 392.34375 358.714844 405.097656 358.714844 C 417.855469 358.714844 428.257812 348.320312 428.257812 335.570312 C 428.257812 322.824219 417.855469 312.429688 405.097656 312.429688 Z M 324.042969 459.875 C 289.484375 469.003906 266.144531 484.375 266.144531 507.695312 C 266.144531 546.660156 336.074219 567 405.097656 567 C 474.125 567 544.054688 546.660156 544.054688 507.695312 C 544.054688 484.191406 521.257812 469.1875 486.246094 459.964844 L 471.410156 480.394531 C 503.164062 487.808594 520.898438 498.296875 520.898438 507.695312 C 520.898438 522.433594 475.753906 543.859375 405.097656 543.859375 C 334.445312 543.859375 289.300781 522.433594 289.300781 507.695312 C 289.300781 498.386719 307.035156 487.71875 338.335938 480.304688 Z M 324.042969 459.875"/></g></svg>