<svg xmlns="http://www.w3.org/2000/svg" width="810" viewBox="0 0 810 810" height="810" version="1.0"><defs><clipPath id="a"><path d="M 244.765625 243 L 565 243 L 565 567 L 244.765625 567 Z M 244.765625 243"/></clipPath></defs><path fill="#FFF" d="M-81 -81H891V891H-81z"/><path fill="#FFF" d="M-81 -81H891V891H-81z"/><g clip-path="url(#a)"><path fill="#E1D83D" d="M 563.117188 399.507812 L 408.472656 244.761719 C 407.769531 244.054688 406.855469 243.601562 405.878906 243.398438 C 404.121094 242.917969 402.160156 243.375 400.777344 244.761719 L 361.601562 283.96875 L 361.601562 259.25 C 361.601562 256.332031 359.238281 253.972656 356.328125 253.972656 L 299.558594 253.972656 C 296.648438 253.972656 294.285156 256.332031 294.285156 259.25 L 294.285156 351.324219 L 246.132812 399.507812 C 245.148438 400.496094 244.589844 401.839844 244.589844 403.242188 C 244.589844 404.640625 245.148438 405.980469 246.132812 406.96875 L 273.753906 434.609375 C 275.816406 436.667969 279.152344 436.667969 281.210938 434.609375 L 294.285156 421.527344 L 294.285156 561.75 C 294.285156 564.664062 296.648438 567.027344 299.558594 567.027344 L 362.878906 567.027344 C 365.789062 567.027344 368.152344 564.664062 368.152344 561.75 L 368.152344 448.796875 L 442.855469 448.796875 L 442.855469 561.75 C 442.855469 564.664062 445.21875 567.027344 448.128906 567.027344 L 509.695312 567.027344 C 512.605469 567.027344 514.96875 564.664062 514.96875 561.75 L 514.96875 421.535156 L 528.035156 434.609375 C 529.066406 435.640625 530.410156 436.152344 531.765625 436.152344 C 533.113281 436.152344 534.464844 435.640625 535.496094 434.609375 L 563.121094 406.972656 C 564.109375 405.984375 564.664062 404.640625 564.664062 403.242188 C 564.664062 401.839844 564.105469 400.496094 563.117188 399.507812 Z M 304.832031 264.523438 L 351.050781 264.523438 L 351.050781 294.519531 L 304.832031 340.769531 Z M 504.417969 556.476562 L 453.402344 556.476562 L 453.402344 443.519531 C 453.402344 440.605469 451.039062 438.242188 448.128906 438.242188 L 362.878906 438.242188 C 359.96875 438.242188 357.605469 440.605469 357.605469 443.519531 L 357.605469 556.476562 L 304.832031 556.476562 L 304.832031 410.972656 L 404.628906 311.113281 L 504.417969 410.980469 Z M 531.761719 423.414062 L 408.359375 299.921875 C 407.371094 298.929688 406.023438 298.375 404.628906 298.375 C 403.230469 298.375 401.886719 298.929688 400.898438 299.921875 L 277.484375 423.414062 L 257.320312 403.238281 L 404.625 255.832031 L 551.933594 403.238281 Z M 531.761719 423.414062"/></g></svg>