<svg xmlns="http://www.w3.org/2000/svg" width="810" viewBox="0 0 810 810" height="810" version="1.0"><defs><clipPath id="a"><path d="M 125.425781 69.265625 L 684.925781 69.265625 L 684.925781 740.515625 L 125.425781 740.515625 Z M 125.425781 69.265625"/></clipPath></defs><path fill="#FFF" d="M-81 -81H891V891H-81z"/><path fill="#FFF" d="M-81 -81H891V891H-81z"/><g clip-path="url(#a)"><path fill="#FFF" d="M 147.804688 178.164062 L 147.804688 346.203125 C 147.804688 495.375 230.769531 629.480469 364.304688 696.164062 L 405.175781 716.601562 L 446.046875 696.164062 C 579.582031 629.480469 662.546875 495.375 662.546875 346.203125 L 662.546875 178.164062 L 405.175781 92.484375 Z M 405.175781 740.269531 C 403.472656 740.269531 401.765625 739.875 400.148438 739.089844 L 354.296875 716.164062 C 213.109375 645.636719 125.425781 503.890625 125.425781 346.203125 L 125.425781 170.128906 C 125.425781 165.324219 128.484375 161.046875 133.074219 159.515625 L 401.636719 70.082031 C 403.953125 69.339844 406.398438 69.339844 408.714844 70.082031 L 677.277344 159.515625 C 681.824219 161.046875 684.925781 165.324219 684.925781 170.128906 L 684.925781 346.203125 C 684.925781 503.890625 597.242188 645.636719 456.054688 716.164062 L 410.203125 739.089844 C 408.585938 739.875 406.882812 740.269531 405.175781 740.269531"/></g><path fill="#FFF" d="M 214.945312 226.546875 L 214.945312 346.203125 C 214.945312 469.785156 283.703125 580.921875 394.335938 636.164062 L 405.175781 641.578125 L 416.015625 636.164062 C 526.648438 580.921875 595.40625 469.785156 595.40625 346.203125 L 595.40625 226.546875 L 405.175781 163.183594 Z M 405.175781 665.289062 C 403.472656 665.289062 401.765625 664.898438 400.148438 664.109375 L 384.324219 656.164062 C 266.042969 597.121094 192.566406 478.34375 192.566406 346.203125 L 192.566406 218.46875 C 192.566406 213.667969 195.667969 209.386719 200.214844 207.859375 L 401.636719 140.785156 C 403.953125 140.039062 406.398438 140.039062 408.714844 140.785156 L 610.136719 207.859375 C 614.683594 209.386719 617.785156 213.667969 617.785156 218.46875 L 617.785156 346.203125 C 617.785156 478.34375 544.308594 597.121094 426.027344 656.164062 L 410.203125 664.109375 C 408.585938 664.898438 406.882812 665.289062 405.175781 665.289062"/><path fill="#FFF" d="M 303.679688 399.476562 L 382.796875 478.519531 L 531.761719 329.695312 L 515.941406 313.886719 L 390.707031 438.996094 C 386.335938 443.363281 379.253906 443.363281 374.882812 438.996094 L 319.503906 383.667969 Z M 382.796875 505.503906 C 379.824219 505.503906 376.984375 504.328125 374.882812 502.230469 L 279.945312 407.382812 C 277.847656 405.285156 276.664062 402.445312 276.664062 399.476562 C 276.664062 396.507812 277.847656 393.667969 279.945312 391.574219 L 311.589844 359.957031 C 315.960938 355.589844 323.042969 355.589844 327.414062 359.957031 L 382.796875 415.285156 L 508.027344 290.175781 C 512.398438 285.808594 519.480469 285.808594 523.851562 290.175781 L 555.496094 321.789062 C 559.867188 326.15625 559.867188 333.230469 555.496094 337.597656 L 390.707031 502.230469 C 388.609375 504.328125 385.769531 505.503906 382.796875 505.503906"/></svg>